<svg width="20" height="20" viewBox="0 0 20 20" fill="none" xmlns="http://www.w3.org/2000/svg">
<rect width="20" height="20" fill="white"/>
<path d="M3.34063 17.252C3.34034 17.2519 3.34003 17.2519 3.33969 17.2519C3.33732 17.2518 3.33372 17.2516 3.32899 17.2513C3.31247 17.2501 3.28397 17.2474 3.24781 17.2413C3.17193 17.2287 3.08222 17.2048 3.00159 17.1645C2.92389 17.1256 2.86902 17.0791 2.83188 17.0234C2.79788 16.9724 2.74951 16.8707 2.74951 16.6686C2.74951 16.1945 3.00825 15.0539 4.02984 14.0323C5.02945 13.0327 6.82435 12.0853 9.99951 12.0853C13.1747 12.0853 14.9696 13.0327 15.9692 14.0323C16.9908 15.0539 17.2495 16.1945 17.2495 16.6686C17.2495 16.8707 17.2011 16.9724 17.1671 17.0234C17.13 17.0791 17.0751 17.1256 16.9974 17.1645C16.9168 17.2048 16.8271 17.2287 16.7512 17.2413C16.715 17.2474 16.6866 17.2501 16.67 17.2513C16.6646 17.2516 16.6607 17.2518 16.6584 17.252H3.34063ZM12.2976 8.30005C11.6881 8.90954 10.8615 9.25195 9.99951 9.25195C9.13756 9.25195 8.31091 8.90954 7.70142 8.30005C7.09192 7.69056 6.74951 6.86391 6.74951 6.00195C6.74951 5.14 7.09192 4.31335 7.70142 3.70386C8.31091 3.09436 9.13756 2.75195 9.99951 2.75195C10.8615 2.75195 11.6881 3.09436 12.2976 3.70386L12.8279 3.17353L12.2976 3.70386C12.9071 4.31335 13.2495 5.14 13.2495 6.00195C13.2495 6.86391 12.9071 7.69056 12.2976 8.30005Z" stroke="#576F8C" stroke-width="1.5"/>
</svg>
