<svg width="20" height="20" viewBox="0 0 20 20" fill="none" xmlns="http://www.w3.org/2000/svg">
<rect width="20" height="20" fill="white"/>
<path d="M7.50049 8.05859H12.5005" stroke="#576F8C" stroke-width="1.5" stroke-linecap="round" stroke-linejoin="round"/>
<path d="M7.50049 11.0566H12.5005" stroke="#576F8C" stroke-width="1.5" stroke-linecap="round" stroke-linejoin="round"/>
<path d="M13.8406 15.5574C13.6272 15.449 13.3748 15.449 13.1613 15.5574L10.0236 17.1512C10.0094 17.1584 9.99256 17.1584 9.97833 17.1512L6.84063 15.5574C6.62717 15.449 6.37478 15.449 6.16133 15.5574L3.75098 16.7817V2.80391C3.75098 2.77629 3.77336 2.75391 3.80098 2.75391H16.201C16.2286 2.75391 16.251 2.77629 16.251 2.80391V16.7817L13.8406 15.5574ZM3.01002 17.1581C3.01022 17.158 3.01043 17.1579 3.01064 17.1578L3.01002 17.1581ZM16.9919 17.1581L16.9913 17.1578L16.9919 17.1581Z" stroke="#576F8C" stroke-width="1.5" stroke-linecap="round" stroke-linejoin="round"/>
</svg>
