<svg width="16" height="16" viewBox="0 0 16 16" fill="none" xmlns="http://www.w3.org/2000/svg">
<g clip-path="url(#clip0_177_1833)">
<path d="M7.04458 1.56056C7.33495 0.620881 8.66505 0.620884 8.95542 1.56056L9.90683 4.63938C10.0363 5.05839 10.4237 5.34414 10.8623 5.34414H14.0437C15.0002 5.34414 15.4109 6.55812 14.6508 7.13879L11.992 9.16991C11.659 9.42432 11.5199 9.85941 11.6436 10.2598L12.6386 13.4796C12.926 14.4098 11.8498 15.1605 11.0761 14.5695L8.60706 12.6833C8.24866 12.4095 7.75134 12.4095 7.39294 12.6833L4.92389 14.5695C4.1502 15.1605 3.07395 14.4098 3.3614 13.4796L4.35636 10.2598C4.48009 9.85941 4.34103 9.42432 4.008 9.16991L1.34923 7.13879C0.589121 6.55812 0.999761 5.34414 1.95629 5.34414H5.13775C5.5763 5.34414 5.96369 5.05839 6.09317 4.63938L7.04458 1.56056Z" fill="#FF7F36"/>
</g>
<defs>
<clipPath id="clip0_177_1833">
<rect width="16" height="16" fill="white"/>
</clipPath>
</defs>
</svg>
