<svg width="131" height="27" viewBox="0 0 131 27" fill="none" xmlns="http://www.w3.org/2000/svg">
<path d="M62.916 23V13.1016H66.7031C68.8496 13.1016 69.9092 14.1953 69.916 15.6719C69.9092 16.875 69.1504 17.5449 68.1797 17.7773V17.873C69.2324 17.9277 70.2988 18.8027 70.2988 20.3066C70.2988 21.8447 69.1846 23 66.9219 23H62.916ZM64.6934 21.5098H66.6484C67.9473 21.5098 68.4873 20.9561 68.4941 20.1699C68.4873 19.2812 67.7969 18.6045 66.6895 18.5977H64.6934V21.5098ZM64.6934 17.3125H66.4844C67.4209 17.3125 68.1318 16.7725 68.1387 15.8906C68.1318 15.1318 67.585 14.5781 66.5254 14.5781H64.6934V17.3125ZM71.3242 20.9082C71.3242 19.2402 72.7119 18.7549 74.0859 18.666C74.6055 18.625 75.665 18.5771 75.9932 18.5635L75.9863 17.9688C75.9863 17.2305 75.5146 16.8066 74.6465 16.8066C73.8672 16.8066 73.3887 17.1621 73.252 17.6953H71.5703C71.6934 16.4307 72.8281 15.4805 74.6875 15.4805C76.0957 15.4805 77.7227 16.0615 77.7227 18.0371V23H76.0547V21.9746H76C75.6719 22.6035 74.9814 23.1504 73.8125 23.1504C72.3975 23.1504 71.3242 22.3779 71.3242 20.9082ZM73.0059 20.8945C73.0059 21.5371 73.5322 21.8652 74.2637 21.8652C75.3232 21.8652 76 21.168 76 20.334L75.9932 19.7256C75.6787 19.7393 74.708 19.8008 74.3594 19.8281C73.5322 19.8965 73.0059 20.2451 73.0059 20.8945ZM82.6035 23.1504C80.3887 23.1504 79.0488 21.5645 79.0488 19.3223C79.0488 17.0459 80.4297 15.4805 82.6035 15.4805C84.4014 15.4805 85.666 16.5332 85.7891 18.1328H84.1211C83.9844 17.4219 83.4648 16.8818 82.6172 16.875C81.5371 16.8818 80.8125 17.7842 80.8125 19.2812C80.8125 20.8125 81.5234 21.7217 82.6172 21.7285C83.3896 21.7217 83.9639 21.2705 84.1211 20.4707H85.7891C85.6592 22.0361 84.4697 23.1504 82.6035 23.1504ZM87.1016 23V13.1016H88.8516V18.5566H88.9746L91.6406 15.5762H93.6777L90.7998 18.7754L93.8555 23H91.7773L89.4941 19.8145L88.8516 20.498V23H87.1016ZM97.6426 23.1504C95.4756 23.1504 94.0879 21.6123 94.0879 19.3223C94.0879 17.0117 95.4756 15.4805 97.6426 15.4805C99.8164 15.4805 101.204 17.0117 101.197 19.3223C101.204 21.6123 99.8164 23.1504 97.6426 23.1504ZM95.8516 19.3086C95.8516 20.6689 96.4463 21.7559 97.6562 21.7559C98.8457 21.7559 99.4404 20.6689 99.4336 19.3086C99.4404 17.9482 98.8457 16.8545 97.6562 16.8613C96.4463 16.8545 95.8516 17.9482 95.8516 19.3086ZM106.311 15.5762V16.916H104.779V23H103.029V16.916H101.922V15.5762H103.029V14.8652C103.029 13.4229 103.925 12.6367 105.354 12.6367C105.757 12.6367 106.133 12.6777 106.461 12.7461V14.127C106.174 14.0859 105.962 14.0791 105.832 14.0723C105.128 14.0791 104.772 14.3525 104.779 15.0293V15.5762H106.311ZM111.314 15.5762V16.916H109.783V23H108.033V16.916H106.926V15.5762H108.033V14.8652C108.033 13.4229 108.929 12.6367 110.357 12.6367C110.761 12.6367 111.137 12.6777 111.465 12.7461V14.127C111.178 14.0859 110.966 14.0791 110.836 14.0723C110.132 14.0791 109.776 14.3525 109.783 15.0293V15.5762H111.314ZM112.559 23V15.5762H114.309V23H112.559ZM112.436 13.5664C112.436 13.0469 112.894 12.623 113.447 12.623C114.001 12.623 114.459 13.0469 114.459 13.5664C114.459 14.0928 114.001 14.5166 113.447 14.5234C112.894 14.5166 112.436 14.0928 112.436 13.5664ZM119.217 23.1504C117.002 23.1504 115.662 21.5645 115.662 19.3223C115.662 17.0459 117.043 15.4805 119.217 15.4805C121.015 15.4805 122.279 16.5332 122.402 18.1328H120.734C120.598 17.4219 120.078 16.8818 119.23 16.875C118.15 16.8818 117.426 17.7842 117.426 19.2812C117.426 20.8125 118.137 21.7217 119.23 21.7285C120.003 21.7217 120.577 21.2705 120.734 20.4707H122.402C122.272 22.0361 121.083 23.1504 119.217 23.1504ZM127.01 23.1504C124.774 23.1504 123.4 21.6602 123.4 19.3359C123.4 17.0391 124.795 15.4805 126.914 15.4805C128.732 15.4805 130.305 16.6221 130.305 19.2266V19.7734H125.123C125.15 21.0381 125.896 21.79 127.023 21.7832C127.789 21.79 128.302 21.4619 128.527 21.0176H130.236C129.922 22.3027 128.732 23.1504 127.01 23.1504ZM125.13 18.584H128.637C128.63 17.5723 127.946 16.834 126.941 16.834C125.896 16.834 125.191 17.6406 125.13 18.584Z" fill="#525960"/>
<g clip-path="url(#clip0_29_674)">
<path d="M2.88989 11.2539C3.8429 12.1878 4.99127 12.8192 6.09199 13.4315C7.00688 13.939 7.86935 14.4203 8.4078 14.9611C8.60329 15.1422 8.75635 15.3642 8.85602 15.6114C8.9557 15.8585 8.99953 16.1246 8.98437 16.3906C9.00246 16.8388 8.85593 17.2782 8.5724 17.6258C8.28888 17.9734 7.88796 18.2052 7.44526 18.2776C6.28736 18.492 5.22952 17.6605 4.61483 16.0571L2.58731 16.8219C3.11861 18.2061 3.93582 19.2592 4.94839 19.8692C5.81567 20.3925 6.84411 20.5814 7.84076 20.4005C8.78303 20.236 9.6356 19.7404 10.2449 19.0031C10.8543 18.2658 11.1803 17.3351 11.1644 16.3787C11.1644 13.7579 9.21547 12.681 7.1546 11.535C5.15566 10.4223 3.08764 9.27158 3.08764 6.64839C3.08764 4.709 4.19789 3.1389 5.98955 2.55041C6.95955 2.23951 8.00246 2.23951 8.97246 2.55041C10.0613 2.9088 11.0082 3.60376 11.6766 4.53507L13.4254 3.24611C12.4855 1.94762 11.1585 0.980121 9.6348 0.48236C8.22854 0.0320845 6.71679 0.0320845 5.31053 0.48236C4.06615 0.884419 2.97563 1.65968 2.18705 2.70289C1.34537 3.84453 0.900234 5.23015 0.919548 6.64839C0.910394 7.51076 1.08085 8.36558 1.42007 9.15848C1.75929 9.95137 2.25985 10.665 2.88989 11.2539Z" fill="#221E1F"/>
<path d="M12.0959 11.2919C11.0404 10.2293 9.75388 9.51457 8.6198 8.88558C7.77877 8.40907 6.98301 7.97306 6.51127 7.51799C6.38045 7.4151 6.27594 7.2826 6.20635 7.13141C6.13676 6.98022 6.10408 6.81466 6.11101 6.64836C6.0852 6.38252 6.15228 6.11595 6.30083 5.89399C6.44938 5.67203 6.67024 5.50838 6.92583 5.43088C7.53337 5.23075 8.50068 5.34987 9.22734 6.33625L10.9761 5.04967C10.4139 4.26739 9.61812 3.68349 8.70319 3.38189C7.90504 3.12702 7.04734 3.12702 6.2492 3.38189C4.80301 3.8584 3.94054 5.08303 3.94054 6.66266C3.93418 7.1188 4.0255 7.57102 4.20837 7.98895C4.39123 8.40688 4.66141 8.78084 5.00076 9.08571C5.67739 9.74091 6.59466 10.2508 7.56673 10.7916C9.65143 11.9519 12.0173 13.2671 12.0173 16.3882C12.0344 17.5856 11.6104 18.7474 10.826 19.6523C10.3603 20.1813 9.78746 20.6053 9.14545 20.8961C8.50344 21.187 7.80694 21.338 7.10214 21.3391C6.18851 21.3403 5.29173 21.0932 4.50758 20.6244C3.31632 19.9096 2.38714 18.7183 1.78674 17.1482L-0.243164 17.9011C0.531154 19.9239 1.78674 21.5012 3.38779 22.4613C4.50824 23.1367 5.79149 23.4942 7.09976 23.4954C7.53297 23.496 7.9653 23.4561 8.39108 23.3762C9.96888 23.0856 11.4026 22.2714 12.4604 21.0652C13.6331 19.6867 14.2463 17.9186 14.1788 16.11C14.1113 14.3015 13.3681 12.584 12.0959 11.2967V11.2919Z" fill="#221E1F"/>
<path d="M18.76 0.625305H16.5896V22.9974H18.76V0.625305Z" fill="#221E1F"/>
<path d="M19.6221 0.625305V11.118H31.973V0.625305H29.8026V8.94755H21.7925V0.625305H19.6221Z" fill="#221E1F"/>
<path d="M35.0059 0.625305H32.8354V22.9974H35.0059V0.625305Z" fill="#221E1F"/>
<path d="M31.973 22.9974V11.9805H19.6221V22.9974H21.7925V14.151H29.8026V22.9974H31.973Z" fill="#221E1F"/>
<path d="M40.4122 3.6059H38.2417V22.9975H40.4122V3.6059Z" fill="#221E1F"/>
<path d="M46.4256 0.575256H38.2417V2.74576H46.4256C47.1487 2.73061 47.8676 2.85996 48.54 3.12621C49.2125 3.39246 49.825 3.79026 50.3418 4.2963C50.8585 4.80234 51.269 5.40643 51.5493 6.07318C51.8296 6.73992 51.974 7.4559 51.974 8.17916C51.974 8.90241 51.8296 9.6184 51.5493 10.2851C51.269 10.9519 50.8585 11.556 50.3418 12.062C49.825 12.5681 49.2125 12.9659 48.54 13.2321C47.8676 13.4984 47.1487 13.6277 46.4256 13.6126H41.2723V22.995H43.4451V15.7854H46.4256C48.4426 15.7854 50.377 14.9842 51.8032 13.558C53.2294 12.1317 54.0306 10.1973 54.0306 8.18035C54.0306 6.16335 53.2294 4.22897 51.8032 2.80274C50.377 1.3765 48.4426 0.575256 46.4256 0.575256Z" fill="#221E1F"/>
<path d="M51.0091 8.18039C51.0085 7.57903 50.8894 6.98369 50.6587 6.42835C50.428 5.873 50.0902 5.36854 49.6645 4.94376C49.2389 4.51898 48.7337 4.1822 48.1779 3.95265C47.6221 3.7231 47.0265 3.60527 46.4251 3.6059H41.2718V12.7549H46.4251C47.0265 12.7555 47.6221 12.6377 48.1779 12.4081C48.7337 12.1786 49.2389 11.8418 49.6645 11.417C50.0902 10.9922 50.428 10.4878 50.6587 9.93243C50.8894 9.37709 51.0085 8.78175 51.0091 8.18039ZM43.4446 5.77878H46.4251C46.747 5.76865 47.0677 5.82329 47.3681 5.93948C47.6685 6.05567 47.9424 6.23103 48.1737 6.45516C48.405 6.67928 48.5889 6.94759 48.7145 7.24416C48.8401 7.54073 48.9048 7.85952 48.9048 8.18158C48.9048 8.50365 48.8401 8.82243 48.7145 9.119C48.5889 9.41557 48.405 9.68388 48.1737 9.90801C47.9424 10.1321 47.6685 10.3075 47.3681 10.4237C47.0677 10.5399 46.747 10.5945 46.4251 10.5844H43.4446V5.77878Z" fill="#221E1F"/>
</g>
<defs>
<clipPath id="clip0_29_674">
<rect width="54" height="24" fill="white"/>
</clipPath>
</defs>
</svg>
