<svg width="20" height="20" viewBox="0 0 20 20" fill="none" xmlns="http://www.w3.org/2000/svg">
<rect width="20" height="20" fill="white"/>
<path d="M17.8122 14.8818L15.5458 13.5729C15.5085 13.5516 15.4674 13.5378 15.4249 13.5324C15.3823 13.5269 15.3391 13.5299 15.2977 13.5412C15.2563 13.5524 15.2175 13.5717 15.1836 13.598C15.1496 13.6242 15.1212 13.6569 15.0999 13.6942L14.691 14.4031C14.6006 14.5592 14.654 14.7606 14.8101 14.851L17.0766 16.1599C17.1138 16.1812 17.1549 16.195 17.1974 16.2004C17.24 16.2059 17.2832 16.2029 17.3246 16.1916C17.366 16.1804 17.4048 16.1611 17.4388 16.1348C17.4727 16.1086 17.5011 16.0759 17.5225 16.0387L17.9314 15.3298C18.0218 15.1736 17.9663 14.9722 17.8122 14.8818ZM15.0978 6.79008C15.1191 6.82732 15.1476 6.85999 15.1815 6.88624C15.2155 6.91249 15.2542 6.93179 15.2956 6.94305C15.3371 6.95431 15.3803 6.9573 15.4228 6.95185C15.4654 6.94641 15.5065 6.93263 15.5437 6.91131L17.8101 5.60241C17.9663 5.512 18.0197 5.31063 17.9293 5.15447L17.5225 4.44762C17.5011 4.41038 17.4727 4.3777 17.4388 4.35146C17.4048 4.32521 17.366 4.30591 17.3246 4.29465C17.2832 4.28339 17.24 4.2804 17.1974 4.28585C17.1549 4.29129 17.1138 4.30507 17.0766 4.32639L14.8101 5.63529C14.7351 5.67903 14.6804 5.75072 14.6581 5.83466C14.6358 5.9186 14.6476 6.00798 14.691 6.08323L15.0978 6.79008ZM18.6731 9.5024H16.043C15.8622 9.5024 15.7142 9.65034 15.7142 9.83116V10.6531C15.7142 10.8339 15.8622 10.9818 16.043 10.9818H18.6731C18.854 10.9818 19.0019 10.8339 19.0019 10.6531V9.83116C19.0019 9.65034 18.854 9.5024 18.6731 9.5024Z" fill="#576F8C"/>
<path d="M5.1109 7.58358L12.2519 2.91624V17.5706L5.1109 12.9033L4.92393 12.7811H4.70057H1.75195V7.70578H4.70057H4.92393L5.1109 7.58358Z" stroke="#576F8C" stroke-width="1.5"/>
</svg>
