<svg width="20" height="20" viewBox="0 0 20 20" fill="none" xmlns="http://www.w3.org/2000/svg">
<rect width="20" height="20" fill="white"/>
<circle cx="10" cy="15.0039" r="2.25" stroke="#576F8C" stroke-width="1.5"/>
<path d="M15.251 11.5039V11.6089L15.2798 11.7099L15.9885 14.1902C15.9916 14.2012 15.9911 14.208 15.9901 14.213C15.9889 14.2191 15.9859 14.2266 15.9803 14.234C15.9747 14.2414 15.9684 14.2464 15.9628 14.2492C15.9583 14.2516 15.9518 14.2539 15.9404 14.2539H4.06156C4.05013 14.2539 4.04369 14.2516 4.03919 14.2492C4.03359 14.2464 4.02721 14.2414 4.02164 14.234C4.01608 14.2266 4.01305 14.2191 4.01182 14.213C4.01083 14.208 4.01034 14.2012 4.01348 14.1902L4.72212 11.7099L4.75098 11.6089V11.5039V8.00391C4.75098 5.10441 7.10148 2.75391 10.001 2.75391C12.9005 2.75391 15.251 5.10441 15.251 8.00391V11.5039Z" fill="white" stroke="#576F8C" stroke-width="1.5"/>
</svg>
