<svg width="130" height="58" viewBox="0 0 130 58" fill="none" xmlns="http://www.w3.org/2000/svg">
<g clip-path="url(#clip0_61_57)">
<path d="M6.95776 27.1988C9.25203 29.4559 12.0166 30.9817 14.6665 32.4615C16.869 33.6879 18.9454 34.851 20.2416 36.158C20.7122 36.5956 21.0807 37.1322 21.3207 37.7294C21.5606 38.3267 21.6661 38.9697 21.6297 39.6127C21.6732 40.6959 21.3204 41.7576 20.6379 42.5976C19.9553 43.4377 18.9901 43.998 17.9244 44.1729C15.1369 44.6911 12.5902 42.6816 11.1104 38.8066L6.22933 40.6548C7.50838 44.0001 9.47573 46.5451 11.9134 48.0191C14.0013 49.2839 16.4772 49.7404 18.8765 49.3031C21.1449 48.9056 23.1974 47.708 24.6644 45.9262C26.1313 44.1443 26.9162 41.8952 26.8778 39.5839C26.8778 33.2503 22.186 30.6477 17.2246 27.8782C12.4124 25.1893 7.43382 22.4083 7.43382 16.0689C7.43382 11.3821 10.1067 7.58766 14.4199 6.16548C16.7551 5.41414 19.2658 5.41414 21.601 6.16548C24.2223 7.03159 26.5019 8.71108 28.111 10.9617L32.321 7.84676C30.0582 4.70873 26.8637 2.37061 23.1955 1.16769C19.8101 0.0795211 16.1707 0.0795211 12.7852 1.16769C9.78949 2.13933 7.16418 4.01288 5.26573 6.53398C3.23947 9.29293 2.16784 12.6415 2.21434 16.0689C2.1923 18.153 2.60266 20.2188 3.4193 22.135C4.23595 24.0511 5.44099 25.7757 6.95776 27.1988Z" fill="white"/>
<path d="M29.1192 27.2889C26.5783 24.7209 23.481 22.9935 20.7508 21.4735C18.7261 20.3219 16.8104 19.2682 15.6747 18.1685C15.3598 17.9198 15.1082 17.5996 14.9407 17.2342C14.7731 16.8689 14.6945 16.4687 14.7112 16.0669C14.649 15.4244 14.8105 14.7802 15.1681 14.2438C15.5258 13.7074 16.0574 13.3119 16.6728 13.1246C18.1354 12.641 20.464 12.9289 22.2134 15.3126L26.4234 12.2034C25.0699 10.3129 23.1542 8.90177 20.9516 8.17289C19.0301 7.55695 16.9653 7.55695 15.0438 8.17289C11.5623 9.32446 9.48594 12.284 9.48594 16.1014C9.47063 17.2038 9.69048 18.2966 10.1307 19.3066C10.5709 20.3166 11.2214 21.2203 12.0383 21.9571C13.6673 23.5405 15.8755 24.7727 18.2157 26.0797C23.2344 28.8838 28.9299 32.0621 28.9299 39.6049C28.9711 42.4985 27.9503 45.3063 26.0621 47.4931C24.9409 48.7716 23.5619 49.7962 22.0163 50.499C20.4707 51.2018 18.7939 51.5667 17.0972 51.5696C14.8977 51.5723 12.7388 50.9753 10.851 49.8423C7.98318 48.1149 5.74626 45.236 4.30087 41.4416L-0.585938 43.2611C1.27816 48.1495 4.30087 51.9611 8.15526 54.2815C10.8526 55.9138 13.9419 56.7777 17.0915 56.7804C18.1344 56.782 19.1752 56.6856 20.2002 56.4925C23.9986 55.7902 27.4501 53.8224 29.9968 50.9075C32.8199 47.5761 34.296 43.3032 34.1335 38.9325C33.9711 34.5618 32.1818 30.4112 29.1192 27.3004V27.2889Z" fill="white"/>
<path d="M45.1627 1.50781H39.9375V55.5738H45.1627V1.50781Z" fill="white"/>
<path d="M47.2383 1.50781V26.8653H76.9721V1.50781H71.7469V21.6199H52.4635V1.50781H47.2383Z" fill="white"/>
<path d="M84.274 1.50781H79.0488V55.5738H84.274V1.50781Z" fill="white"/>
<path d="M76.9721 55.5771V28.9529H47.2383V55.5771H52.4635V34.1983H71.7469V55.5771H76.9721Z" fill="white"/>
<path d="M97.2877 8.71094H92.0625V55.5739H97.2877V8.71094Z" fill="white"/>
<path d="M111.765 1.39062H92.0625V6.636H111.765C113.505 6.59941 115.236 6.91199 116.855 7.55543C118.474 8.19887 119.948 9.16022 121.192 10.3831C122.436 11.6061 123.425 13.066 124.099 14.6773C124.774 16.2886 125.122 18.0189 125.122 19.7667C125.122 21.5146 124.774 23.2449 124.099 24.8562C123.425 26.4675 122.436 27.9274 121.192 29.1503C119.948 30.3732 118.474 31.3346 116.855 31.978C115.236 32.6215 113.505 32.934 111.765 32.8974H99.3583V55.5718H104.589V38.1486H111.765C116.62 38.1486 121.277 36.2122 124.711 32.7655C128.144 29.3188 130.073 24.644 130.073 19.7696C130.073 14.8952 128.144 10.2204 124.711 6.7737C121.277 3.32698 116.62 1.39062 111.765 1.39062Z" fill="white"/>
<path d="M122.799 19.766C122.798 18.3127 122.511 16.8739 121.956 15.5319C121.4 14.1898 120.587 12.9707 119.562 11.9441C118.537 10.9176 117.321 10.1037 115.983 9.54892C114.645 8.99418 113.211 8.70943 111.764 8.71094H99.3574V30.821H111.764C113.211 30.8225 114.645 30.5378 115.983 29.983C117.321 29.4283 118.537 28.6144 119.562 27.5878C120.587 26.5613 121.4 25.3421 121.956 24.0001C122.511 22.658 122.798 21.2192 122.799 19.766ZM104.588 13.9621H111.764C112.539 13.9376 113.311 14.0696 114.034 14.3504C114.757 14.6312 115.416 15.055 115.973 15.5967C116.53 16.1383 116.973 16.7867 117.275 17.5034C117.577 18.2201 117.733 18.9905 117.733 19.7688C117.733 20.5472 117.577 21.3176 117.275 22.0343C116.973 22.751 116.53 23.3994 115.973 23.941C115.416 24.4827 114.757 24.9065 114.034 25.1873C113.311 25.468 112.539 25.6001 111.764 25.5756H104.588V13.9621Z" fill="white"/>
</g>
<defs>
<clipPath id="clip0_61_57">
<rect width="130" height="58" fill="white"/>
</clipPath>
</defs>
</svg>
